{
  "accessors": [
    {
      "bufferView": 2,
      "componentType": 5126,
      "count": 45889,
      "max": [
        44.00033950805664,
        6.795115947723389,
        15.617961883544922
      ],
      "min": [
        -34.637386322021484,
        -11.7374849319458,
        -3.1938650608062744
      ],
      "type": "VEC3"
    },
    {
      "bufferView": 2,
      "byteOffset": 550668,
      "componentType": 5126,
      "count": 45889,
      "max": [
        0.9999967813491821,
        1.0,
        0.9999987483024597
      ],
      "min": [
        -0.9960808753967285,
        -0.9999640583992004,
        -0.9999076128005981
      ],
      "type": "VEC3"
    },
    {
      "bufferView": 1,
      "componentType": 5126,
      "count": 45889,
      "max": [
        0.9944279789924622,
        0.9992910027503967
      ],
      "min": [
        0.0007089999853633344,
        0.0006120000034570694
      ],
      "type": "VEC2"
    },
    {
      "bufferView": 0,
      "componentType": 5125,
      "count": 270930,
      "type": "SCALAR"
    }
  ],
  "asset": {
    "extras": {
      "author": "Natural History Museum Vienna (https://sketchfab.com/NHMWien)",
      "license": "CC-BY-NC-4.0 (http://creativecommons.org/licenses/by-nc/4.0/)",
      "source": "https://sketchfab.com/3d-models/bone-point-fragment-nhmw-prae-49545-f5e9b6f067f940529c14da0c209a60a2",
      "title": "Bone point fragment (NHMW-Prae 49.545)"
    },
    "generator": "Sketchfab-15.23.0",
    "version": "2.0"
  },
  "bufferViews": [
    {
      "buffer": 0,
      "byteLength": 1083720,
      "name": "floatBufferViews",
      "target": 34963
    },
    {
      "buffer": 0,
      "byteLength": 367112,
      "byteOffset": 1083720,
      "byteStride": 8,
      "name": "floatBufferViews",
      "target": 34962
    },
    {
      "buffer": 0,
      "byteLength": 1101336,
      "byteOffset": 1450832,
      "byteStride": 12,
      "name": "floatBufferViews",
      "target": 34962
    }
  ],
  "buffers": [
    {
      "byteLength": 2552168,
      "uri": "scene.bin"
    }
  ],
  "extensionsRequired": [
    "KHR_materials_pbrSpecularGlossiness"
  ],
  "extensionsUsed": [
    "KHR_materials_pbrSpecularGlossiness"
  ],
  "images": [
    {
      "uri": "textures/material_0_diffuse.png"
    }
  ],
  "materials": [
    {
      "doubleSided": true,
      "extensions": {
        "KHR_materials_pbrSpecularGlossiness": {
          "diffuseFactor": [
            1.0,
            1.0,
            1.0,
            1.0
          ],
          "diffuseTexture": {
            "index": 0
          },
          "glossinessFactor": 0.5588192699773954,
          "specularFactor": [
            0.01731552667535591,
            0.01731552667535591,
            0.01731552667535591
          ]
        }
      },
      "name": "material_0"
    }
  ],
  "meshes": [
    {
      "name": "Object_0",
      "primitives": [
        {
          "attributes": {
            "NORMAL": 1,
            "POSITION": 0,
            "TEXCOORD_0": 2
          },
          "indices": 3,
          "material": 0,
          "mode": 4
        }
      ]
    }
  ],
  "nodes": [
    {
      "children": [
        1
      ],
      "matrix": [
        0.9541912078857422,
        0.2991975247859955,
        6.643519618565363e-17,
        0.0,
        0.0,
        2.220446049250313e-16,
        -1.0,
        0.0,
        -0.2991975247859955,
        0.9541912078857422,
        2.1187300977792804e-16,
        0.0,
        0.0,
        0.0,
        0.0,
        1.0
      ],
      "name": "Sketchfab_model"
    },
    {
      "children": [
        2
      ],
      "name": "NHMW-Prae-49545-Knochenspitze-030223-NB-VW.obj.cleaner.materialmerger.gles"
    },
    {
      "mesh": 0,
      "name": "Object_2"
    }
  ],
  "samplers": [
    {
      "magFilter": 9729,
      "minFilter": 9987,
      "wrapS": 10497,
      "wrapT": 10497
    }
  ],
  "scene": 0,
  "scenes": [
    {
      "name": "Sketchfab_Scene",
      "nodes": [
        0
      ]
    }
  ],
  "textures": [
    {
      "sampler": 0,
      "source": 0
    }
  ]
}
