{
  "accessors": [
    {
      "bufferView": 2,
      "componentType": 5126,
      "count": 65532,
      "max": [
        30.954545974731445,
        23.234722137451172,
        39.488067626953125
      ],
      "min": [
        -28.40473747253418,
        -33.224517822265625,
        -34.8809928894043
      ],
      "type": "VEC3"
    },
    {
      "bufferView": 2,
      "byteOffset": 786384,
      "componentType": 5126,
      "count": 65532,
      "max": [
        0.9999962449073792,
        0.9998264312744141,
        0.9999321699142456
      ],
      "min": [
        -0.9999628067016602,
        -0.9999865293502808,
        -0.9999389052391052
      ],
      "type": "VEC3"
    },
    {
      "bufferView": 1,
      "componentType": 5126,
      "count": 65532,
      "max": [
        0.9889370203018188,
        0.9985139966011047
      ],
      "min": [
        0.0007089999853633344,
        0.0007670000195503235
      ],
      "type": "VEC2"
    },
    {
      "bufferView": 0,
      "componentType": 5125,
      "count": 369435,
      "type": "SCALAR"
    },
    {
      "bufferView": 2,
      "byteOffset": 1572768,
      "componentType": 5126,
      "count": 43913,
      "max": [
        30.376731872558594,
        23.359939575195313,
        39.488067626953125
      ],
      "min": [
        -28.389156341552734,
        -33.19429016113281,
        -34.770172119140625
      ],
      "type": "VEC3"
    },
    {
      "bufferView": 2,
      "byteOffset": 2099724,
      "componentType": 5126,
      "count": 43913,
      "max": [
        0.9999894499778748,
        0.9999579191207886,
        0.9999762773513794
      ],
      "min": [
        -0.9999800324440002,
        -0.99998539686203,
        -0.9999389052391052
      ],
      "type": "VEC3"
    },
    {
      "bufferView": 1,
      "byteOffset": 524256,
      "componentType": 5126,
      "count": 43913,
      "max": [
        0.9517599940299988,
        0.9992910027503967
      ],
      "min": [
        0.008755000308156013,
        0.0018660000059753656
      ],
      "type": "VEC2"
    },
    {
      "bufferView": 0,
      "byteOffset": 1477740,
      "componentType": 5125,
      "count": 230565,
      "type": "SCALAR"
    }
  ],
  "asset": {
    "extras": {
      "author": "Natural History Museum Vienna (https://sketchfab.com/NHMWien)",
      "license": "CC-BY-NC-4.0 (http://creativecommons.org/licenses/by-nc/4.0/)",
      "source": "https://sketchfab.com/3d-models/logboat-model-9222035b636f4081b50ab90b98313e91",
      "title": "Logboat model"
    },
    "generator": "Sketchfab-15.83.0",
    "version": "2.0"
  },
  "bufferViews": [
    {
      "buffer": 0,
      "byteLength": 2400000,
      "name": "floatBufferViews",
      "target": 34963
    },
    {
      "buffer": 0,
      "byteLength": 875560,
      "byteOffset": 2400000,
      "byteStride": 8,
      "name": "floatBufferViews",
      "target": 34962
    },
    {
      "buffer": 0,
      "byteLength": 2626680,
      "byteOffset": 3275560,
      "byteStride": 12,
      "name": "floatBufferViews",
      "target": 34962
    }
  ],
  "buffers": [
    {
      "byteLength": 5902240,
      "uri": "scene.bin"
    }
  ],
  "images": [
    {
      "uri": "textures/material_0_baseColor.png"
    }
  ],
  "materials": [
    {
      "doubleSided": true,
      "name": "material_0",
      "pbrMetallicRoughness": {
        "baseColorTexture": {
          "index": 0
        },
        "metallicFactor": 0.0
      }
    }
  ],
  "meshes": [
    {
      "name": "Object_0",
      "primitives": [
        {
          "attributes": {
            "NORMAL": 1,
            "POSITION": 0,
            "TEXCOORD_0": 2
          },
          "indices": 3,
          "material": 0,
          "mode": 4
        }
      ]
    },
    {
      "name": "Object_1",
      "primitives": [
        {
          "attributes": {
            "NORMAL": 5,
            "POSITION": 4,
            "TEXCOORD_0": 6
          },
          "indices": 7,
          "material": 0,
          "mode": 4
        }
      ]
    }
  ],
  "nodes": [
    {
      "children": [
        1
      ],
      "matrix": [
        0.982154369354248,
        -4.176140436482168e-17,
        0.18807664513587952,
        0.0,
        0.08810076117515564,
        -0.883500576019287,
        -0.4600706696510317,
        0.0,
        0.1661658138036728,
        0.46843010187149065,
        -0.8677338957786559,
        0.0,
        0.0,
        0.0,
        0.0,
        1.0
      ],
      "name": "Sketchfab_model"
    },
    {
      "children": [
        2,
        3
      ],
      "name": "UNIVIE-Inst-Prehistory-Historical-Archaeology-1557-Logboat-Mondsee-lowres.obj.cleaner.materialmerger.gles"
    },
    {
      "mesh": 0,
      "name": "Object_2"
    },
    {
      "mesh": 1,
      "name": "Object_3"
    }
  ],
  "samplers": [
    {
      "magFilter": 9729,
      "minFilter": 9987,
      "wrapS": 10497,
      "wrapT": 10497
    }
  ],
  "scene": 0,
  "scenes": [
    {
      "name": "Sketchfab_Scene",
      "nodes": [
        0
      ]
    }
  ],
  "textures": [
    {
      "sampler": 0,
      "source": 0
    }
  ]
}
